<svg width="123" height="118" viewBox="0 0 123 118" fill="none" xmlns="http://www.w3.org/2000/svg">
<path d="M15.7077 110.662H18.1463V118H14.6796V113.831H3.46669V118H0V110.662H1.76921C3.124 108.264 3.8014 104.896 3.8014 100.56V96.8196H15.7077V110.662ZM12.241 110.662V99.9883H7.10073V101.489C7.10073 105.46 6.52694 108.518 5.37934 110.662H12.241Z" fill="white"/>
<path d="M24.2627 110.662H33.5869V113.831H20.7004V96.8196H33.3239V99.9883H24.2627V103.562H31.3156V106.659H24.2627V110.662Z" fill="white"/>
<path d="M45.7805 101.608C45.7805 100.989 45.5175 100.512 44.9915 100.179C44.4814 99.8453 43.82 99.6786 43.0071 99.6786C41.1901 99.6786 40.1541 100.33 39.899 101.632H36.2172C36.3925 100.012 37.0779 98.7573 38.2733 97.8679C39.4846 96.9625 41.0785 96.5098 43.0549 96.5098C45.0313 96.5098 46.5854 96.9466 47.717 97.8202C48.8646 98.6779 49.4384 99.7977 49.4384 101.18C49.4384 102.768 48.8646 103.872 47.717 104.491V105.111C49.279 105.682 50.06 106.945 50.06 108.899C50.06 110.408 49.4304 111.663 48.1713 112.663C46.9281 113.648 45.2306 114.14 43.0788 114.14C40.7836 114.14 39.0065 113.664 37.7473 112.711C36.5041 111.758 35.7789 110.408 35.5717 108.661H39.3252C39.7237 110.201 40.9749 110.972 43.0788 110.972C44.083 110.972 44.8719 110.773 45.4457 110.376C46.0355 109.979 46.3303 109.439 46.3303 108.756C46.3303 107.342 45.3342 106.635 43.3418 106.635H40.8315V103.538H43.3418C44.9676 103.538 45.7805 102.895 45.7805 101.608Z" fill="white"/>
<path d="M53.2706 113.831V96.8196H58.7456L61.5429 103.681H62.1645L64.9378 96.8196H70.4367V113.831H67.1135V101.156H66.4919L63.6229 108.017H60.0606L57.2155 101.156H56.5939V113.831H53.2706Z" fill="white"/>
<path d="M85.6139 113.831L84.2273 109.232H77.7242L76.3376 113.831H72.8231L78.2502 96.8196H83.773L89.2241 113.831H85.6139ZM80.4259 100.227L78.6327 106.135H83.2709L81.4778 100.227H80.4259Z" fill="white"/>
<path d="M91.6311 113.831V96.8196H95.1935V103.467H99.2339L102.366 96.8196H106.048L102.222 105.087L106.263 113.831H102.581L99.2579 106.683H95.1935V113.831H91.6311Z" fill="white"/>
<path d="M119.294 108.399H123C122.745 110.13 121.98 111.52 120.705 112.568C119.446 113.616 117.836 114.14 115.875 114.14C113.309 114.14 111.301 113.338 109.85 111.734C108.416 110.114 107.699 107.978 107.699 105.325C107.699 102.673 108.424 100.544 109.874 98.94C111.325 97.3199 113.325 96.5098 115.875 96.5098C117.74 96.5098 119.294 96.9943 120.537 97.9632C121.781 98.9162 122.546 100.187 122.833 101.775H119.103C118.704 100.377 117.629 99.6786 115.875 99.6786C114.409 99.6786 113.285 100.211 112.504 101.275C111.739 102.323 111.357 103.673 111.357 105.325C111.357 106.977 111.739 108.335 112.504 109.399C113.285 110.447 114.409 110.972 115.875 110.972C116.784 110.972 117.533 110.749 118.123 110.305C118.728 109.844 119.119 109.209 119.294 108.399Z" fill="white"/>
<path fill-rule="evenodd" clip-rule="evenodd" d="M78.6303 15.6116L64.1326 33.9365L79.5515 43.4398L52.611 76.7919L64.1185 47.4262L47.0344 34.2426L59.7252 0L78.6303 15.6116Z" fill="#FFA800"/>
<path fill-rule="evenodd" clip-rule="evenodd" d="M75.5937 19.6699L61.3811 37.8064L76.4967 47.2121L50.0861 80.2214L61.3672 51.1575L44.6191 38.1094L57.0604 4.2187L75.5937 19.6699Z" fill="white"/>
</svg>
