<?xml version="1.0" encoding="UTF-8"?>
<!DOCTYPE svg PUBLIC "-//W3C//DTD SVG 1.1//EN" "http://www.w3.org/Graphics/SVG/1.1/DTD/svg11.dtd">
<!-- Creator: CorelDRAW 2021.5 -->
<svg xmlns="http://www.w3.org/2000/svg" xml:space="preserve" width="300px" height="300px" version="1.1" style="shape-rendering:geometricPrecision; text-rendering:geometricPrecision; image-rendering:optimizeQuality; fill-rule:evenodd; clip-rule:evenodd"
viewBox="0 0 300 300"
 xmlns:xlink="http://www.w3.org/1999/xlink"
 xmlns:xodm="http://www.corel.com/coreldraw/odm/2003">
 <defs>
  <style type="text/css">
   <![CDATA[
    .fil0 {fill:black}
    .fil2 {fill:#FF6600}
    .fil3 {fill:white}
    .fil1 {fill:white;fill-rule:nonzero}
   ]]>
  </style>
 </defs>
 <g id="Слой_x0020_1">
  <metadata id="CorelCorpID_0Corel-Layer"/>
  <rect class="fil0" x="-0.11" y="0.11" width="300" height="300"/>
  <path class="fil1" d="M99.69 256.03l2.13 0 0 7.55 -3.92 0 0 -3.8 -10.99 0 0 3.8 -3.91 0 0 -7.55 1.93 0c1.1,-1.53 1.64,-3.77 1.64,-6.72l0 -9.4 13.12 0 0 16.12zm-10.56 0l6.64 0 0 -12.45 -5.28 0 0 5.78c0,2.88 -0.45,5.1 -1.36,6.67z"/>
  <polygon id="_1" class="fil1" points="109.05,256.03 117.42,256.03 117.42,259.78 105.14,259.78 105.14,239.91 117.28,239.91 117.28,243.66 109.05,243.66 109.05,247.89 116.57,247.89 116.57,251.58 109.05,251.58 "/>
  <path id="_2" class="fil1" d="M131.42 249.51c1.89,1 2.84,2.57 2.84,4.71 0,1.78 -0.68,3.21 -2.02,4.31 -1.34,1.1 -3.07,1.65 -5.19,1.65 -3.69,0 -6.16,-1.56 -7.41,-4.68l3.38 -1.91c0.6,1.93 1.94,2.9 4.03,2.9 1.07,0 1.9,-0.23 2.47,-0.68 0.56,-0.46 0.85,-1.07 0.85,-1.85 0,-0.77 -0.28,-1.39 -0.84,-1.84 -0.56,-0.46 -1.36,-0.68 -2.4,-0.68l-2.47 0 0 -3.49 1.88 0c0.98,0 1.75,-0.22 2.29,-0.64 0.55,-0.43 0.83,-1.01 0.83,-1.75 0,-0.74 -0.24,-1.32 -0.71,-1.74 -0.48,-0.43 -1.18,-0.64 -2.1,-0.64 -1.71,0 -2.9,0.83 -3.58,2.5l-3.32 -1.93c1.34,-2.82 3.64,-4.23 6.9,-4.23 1.97,0 3.57,0.53 4.82,1.59 1.25,1.06 1.88,2.46 1.88,4.2 0,1.77 -0.71,3.18 -2.13,4.2z"/>
  <polygon id="_3" class="fil1" points="156.96,239.91 156.96,259.78 153.07,259.78 153.07,246.9 147.48,256.12 147.03,256.12 141.44,246.92 141.44,259.78 137.52,259.78 137.52,239.91 141.55,239.91 147.25,249.31 152.93,239.91 "/>
  <path id="_4" class="fil1" d="M174.13 259.78l-1.19 -3.58 -7.92 0 -1.19 3.58 -4.23 0 6.95 -19.87 4.86 0 6.98 19.87 -4.26 0zm-7.86 -7.24l5.45 0 -2.73 -8.11 -2.72 8.11z"/>
  <polygon id="_5" class="fil1" points="196.55,259.78 192.04,259.78 184.95,250.47 184.95,259.78 181.03,259.78 181.03,239.91 184.95,239.91 184.95,248.68 191.76,239.91 196.27,239.91 188.92,249.56 "/>
  <path id="_6" class="fil1" d="M206.91 260.18c-2.99,0 -5.46,-0.99 -7.41,-2.98 -1.94,-1.99 -2.92,-4.44 -2.92,-7.35 0,-2.94 0.98,-5.39 2.92,-7.37 1.95,-1.97 4.42,-2.96 7.41,-2.96 1.8,0 3.46,0.42 4.98,1.26 1.53,0.84 2.71,1.98 3.57,3.42l-3.38 1.96c-0.49,-0.89 -1.19,-1.59 -2.1,-2.09 -0.91,-0.5 -1.93,-0.75 -3.07,-0.75 -1.93,0 -3.48,0.61 -4.67,1.82 -1.18,1.21 -1.77,2.78 -1.77,4.71 0,1.91 0.59,3.47 1.77,4.68 1.19,1.21 2.74,1.82 4.67,1.82 1.14,0 2.16,-0.25 3.08,-0.76 0.92,-0.5 1.62,-1.18 2.09,-2.05l3.38 1.96c-0.86,1.43 -2.04,2.57 -3.55,3.42 -1.52,0.84 -3.18,1.26 -5,1.26z"/>
  <polygon class="fil2" points="170.35,123.77 149.89,150.11 171.65,163.77 133.63,211.71 149.87,169.5 125.76,150.55 143.67,101.33 "/>
  <path class="fil3" d="M143.81 92.04c2.73,1.83 2.51,2.71 4.09,3.47 0.48,-3.92 0.12,-8.21 -1.02,-11.86 -1.32,-4.22 -3.02,-5.73 -5.2,-8.54l-3.04 -3.69c-2.34,-3.07 -7.04,-8.05 -9.7,-11.03l-3.12 -3.62c-0.63,-0.79 -1.11,-1.04 -1.74,-1.76 -4.25,-4.85 -9.31,-10.03 -13.04,-14.44l-6.61 -7.12c-1.01,-1.23 -0.82,-1.28 -1.85,-1.8 0.09,1.87 1.42,2.89 2.34,3.95l23.66 27.16 8.38 10.91c3.38,4.78 7.73,10.59 6.85,18.37z"/>
  <path class="fil3" d="M156.4 93.35l0.08 3.71c1.09,-0.26 3.67,-2.98 4.16,-3.71 -1.57,-6.4 4.36,-14.37 6.9,-18.07l13.95 -17.61 19.45 -22.06c0.99,-0.84 0.85,-0.71 0.97,-2.21 -0.72,0.38 -0.98,0.78 -1.73,1.47l-16.51 17.96c-0.33,0.33 -0.5,0.6 -0.8,0.97l-15.42 17.3c-1.42,1.51 -7.65,9.3 -8.66,11.22 -1.48,2.8 -2.5,7.44 -2.39,11.03z"/>
  <path class="fil3" d="M192.18 152.25c2.43,0.3 7.85,3.4 9.27,4.44 4.5,3.29 5.53,6.48 6.83,7.55l0.78 -5.37c-0.33,-0.3 -0.81,-0.71 -1.22,-1.08 -0.6,-0.54 -0.31,-0.42 -1.27,-0.74 -4.5,-1.52 -6.93,-3 -10.65,-5.74 -5.31,-3.91 -11.13,-9.69 -14.92,-14.91l-7.2 -10.09 -0.59 1.11c-0.49,1.39 -0.69,2.26 -0.08,3.61 0.57,1.24 1.54,2.67 2.3,3.85 2.65,4.05 13.94,19.16 16.08,20.39l0.67 -3.02z"/>
  <path class="fil3" d="M112.65 157.78c1.57,-1.82 3.18,-5.14 4.58,-7.34 1.4,-2.2 3.09,-5.1 4.24,-7.44 1.33,-2.73 2.69,-5.2 4.03,-7.97 2.29,-4.75 2.05,-4.11 0.44,-8.54 -0.67,0.55 -0.02,-0.4 -0.69,0.74 -0.01,0.03 -0.28,0.75 -0.32,0.84 -2.61,6.14 -10.55,19.76 -14.46,23.52 -0.6,0.58 -0.5,0.43 -0.99,1.04 -3.03,3.74 -7.46,6.98 -11.75,9.3 -1.34,0.73 -1.04,1.22 -2.08,1.93 0.22,1.16 0.45,1.78 0.81,2.89 0.15,0.49 0.24,0.86 0.4,1.33 0.02,0.07 0.19,0.58 0.23,0.66 0.18,0.39 0.24,0.37 0.41,0.58 1.7,-6.19 8.3,-11.82 13.79,-14.35l1.36 2.81z"/>
  <path class="fil3" d="M124.24 195.92c0.25,-1.83 0.18,-3.32 0.55,-5.28 0.31,-1.67 0.83,-3.04 1.18,-4.65 0.65,-2.93 1.93,-12.89 1.38,-15.96 -0.26,-1.46 -1.47,-2.2 -1.03,-4.71 0.32,-1.84 1.21,-2.7 0.34,-5 -0.53,-1.39 -1.41,-2.49 -2.66,-2.83 -5.57,4.97 3.73,28.67 -4.8,37.52 -0.97,1.01 -1.37,0.44 -0.92,1.72 2.34,-0.43 2.6,-1.94 5.96,-0.81z"/>
  <path class="fil3" d="M179.35 157.29c-4.61,0.91 -2.88,8.16 -2.88,8.22 -0.06,2.43 -1.27,2.74 -1.52,4.53 -1.31,9.57 1.25,18.11 1,25.45 5.09,0.12 1.92,-0.24 5.53,1.26 0.31,0.13 1.27,0.06 0.39,-1.08 -0.23,-0.3 -0.53,-0.47 -0.89,-0.9 -8.8,-10.7 2.93,-32.43 -1.63,-37.48z"/>
  <path class="fil3" d="M179.42 91.29c-8.31,14.69 -3.07,7.22 -13.2,14.52 -1,0.72 -1.6,0.81 -1.98,2.03 0.57,1.57 2.31,1.92 3.2,0.37 1.98,-3.45 6.8,-4.82 10.79,-5.28 0.57,-2.54 3.36,-8.22 4.94,-10.56 1.04,-1.55 2.04,-1.59 1.4,-3.2 -1.56,0.45 -2.31,1.75 -5.15,2.12z"/>
  <path class="fil3" d="M121.73 100.95c2.48,0.79 4.48,0.86 6.77,1.97 2.66,1.3 3.13,2.13 4.42,4.22 1.81,0.25 2.16,0.26 2.83,-1.15 -1.24,-2.62 -7.06,-4.53 -9.31,-6.55 -1.92,-1.73 -4.12,-7.15 -5.83,-9.96 -2.44,-0.44 -4.4,-1.94 -5.28,-2.07 -0.34,1.56 1.6,2.83 3.3,6.38 1.08,2.25 2.36,4.64 3.1,7.16z"/>
  <path class="fil3" d="M110.83 223.1c0.6,-0.85 0.48,-2.87 0.83,-4.09 1.7,-5.97 10.03,-15.77 11.46,-22.14 -0.96,-0.64 -1.42,-0.62 -2.73,-0.38 -0.52,0.29 -3.87,14.69 -11.96,20.47 -0.93,0.66 -2.08,0.95 -2.33,2.11 1.01,0.48 2,-0.48 3.08,0.77 0.81,0.94 0.56,2.33 1.07,3.26l0.58 0z"/>
  <path class="fil3" d="M180.15 197.07c-0.44,-1.34 -2.36,-0.84 -3.18,-0.45 2.29,8.6 6.37,14.03 8.57,19.44 0.55,1.35 0.86,2.27 1.11,3.68 0.21,1.15 0.1,3.3 0.29,3.97 1.31,0.17 0.78,0.63 1.2,-1.06 0.81,-3.28 2.21,-2.54 3.98,-2.26 0.11,-1.82 -1.75,-1.52 -4.38,-4.81 -1.17,-1.46 -2.54,-3.7 -3.5,-5.71 -1.07,-2.27 -1.78,-4.02 -2.55,-6.49l-1.54 -6.31z"/>
 </g>
</svg>
