<svg width="187" height="179" viewBox="0 0 187 179" fill="none" xmlns="http://www.w3.org/2000/svg">
<path d="M24.4663 167.212H28.1383V178.3H22.9183V172H6.03433V178.3H0.814331V167.212H3.47833C5.51833 163.588 6.53833 158.5 6.53833 151.948V146.296H24.4663V167.212ZM19.2463 167.212V151.084H11.5063V153.352C11.5063 159.352 10.6423 163.972 8.91433 167.212H19.2463Z" fill="white"/>
<path d="M37.3481 167.212H51.3881V172H31.9841V146.296H50.9921V151.084H37.3481V156.484H47.9681V161.164H37.3481V167.212Z" fill="white"/>
<path d="M69.7487 153.532C69.7487 152.596 69.3527 151.876 68.5607 151.372C67.7927 150.868 66.7967 150.616 65.5727 150.616C62.8367 150.616 61.2767 151.6 60.8927 153.568H55.3487C55.6127 151.12 56.6447 149.224 58.4447 147.88C60.2687 146.512 62.6687 145.828 65.6447 145.828C68.6207 145.828 70.9607 146.488 72.6647 147.808C74.3927 149.104 75.2567 150.796 75.2567 152.884C75.2567 155.284 74.3927 156.952 72.6647 157.888V158.824C75.0167 159.688 76.1927 161.596 76.1927 164.548C76.1927 166.828 75.2447 168.724 73.3487 170.236C71.4767 171.724 68.9207 172.468 65.6807 172.468C62.2247 172.468 59.5487 171.748 57.6527 170.308C55.7807 168.868 54.6887 166.828 54.3767 164.188H60.0287C60.6287 166.516 62.5127 167.68 65.6807 167.68C67.1927 167.68 68.3807 167.38 69.2447 166.78C70.1327 166.18 70.5767 165.364 70.5767 164.332C70.5767 162.196 69.0767 161.128 66.0767 161.128H62.2967V156.448H66.0767C68.5247 156.448 69.7487 155.476 69.7487 153.532Z" fill="white"/>
<path d="M81.0271 172V146.296H89.2711L93.4831 156.664H94.4191L98.5951 146.296H106.875V172H101.871V152.848H100.935L96.6151 163.216H91.2511L86.9671 152.848H86.0311V172H81.0271Z" fill="white"/>
<path d="M129.728 172L127.64 165.052H117.848L115.76 172H110.468L118.64 146.296H126.956L135.164 172H129.728ZM121.916 151.444L119.216 160.372H126.2L123.5 151.444H121.916Z" fill="white"/>
<path d="M138.789 172V146.296H144.153V156.34H150.237L154.953 146.296H160.497L154.737 158.788L160.821 172H155.277L150.273 161.2H144.153V172H138.789Z" fill="white"/>
<path d="M180.443 163.792H186.023C185.639 166.408 184.487 168.508 182.567 170.092C180.671 171.676 178.247 172.468 175.295 172.468C171.431 172.468 168.407 171.256 166.223 168.832C164.063 166.384 162.983 163.156 162.983 159.148C162.983 155.14 164.075 151.924 166.259 149.5C168.443 147.052 171.455 145.828 175.295 145.828C178.103 145.828 180.443 146.56 182.315 148.024C184.187 149.464 185.339 151.384 185.771 153.784H180.155C179.555 151.672 177.935 150.616 175.295 150.616C173.087 150.616 171.395 151.42 170.219 153.028C169.067 154.612 168.491 156.652 168.491 159.148C168.491 161.644 169.067 163.696 170.219 165.304C171.395 166.888 173.087 167.68 175.295 167.68C176.663 167.68 177.791 167.344 178.679 166.672C179.591 165.976 180.179 165.016 180.443 163.792Z" fill="white"/>
<path fill-rule="evenodd" clip-rule="evenodd" d="M119.213 23.5894L97.3827 51.2786L120.6 65.6383L80.0339 116.034L97.3613 71.6618L71.6369 51.7412L90.7462 0L119.213 23.5894Z" fill="#FFA800"/>
<path fill-rule="evenodd" clip-rule="evenodd" d="M114.64 29.7215L93.2395 57.1261L116 71.3382L76.2319 121.216L93.2186 77.2998L68.0001 57.5839L86.7335 6.37453L114.64 29.7215Z" fill="white"/>
</svg>
