<?xml version="1.0" encoding="UTF-8"?>
<!DOCTYPE svg PUBLIC "-//W3C//DTD SVG 1.1//EN" "http://www.w3.org/Graphics/SVG/1.1/DTD/svg11.dtd">
<!-- Creator: CorelDRAW 2021.5 -->
<svg xmlns="http://www.w3.org/2000/svg" xml:space="preserve" width="600px" height="600px" version="1.1" style="shape-rendering:geometricPrecision; text-rendering:geometricPrecision; image-rendering:optimizeQuality; fill-rule:evenodd; clip-rule:evenodd"
viewBox="0 0 599.54 599.54"
 xmlns:xlink="http://www.w3.org/1999/xlink"
 xmlns:xodm="http://www.corel.com/coreldraw/odm/2003">
 <defs>
  <style type="text/css">
   <![CDATA[
    .fil3 {fill:none}
    .fil1 {fill:#ffa800}
    .fil2 {fill:white}
    .fil0 {fill:white;fill-rule:nonzero}
   ]]>
  </style>
 </defs>
 <g id="Слой_x0020_1">
  <metadata id="CorelCorpID_0Corel-Layer"/>
  <path class="fil0" d="M199.45 511.45l4.25 0 0 15.09 -7.82 0 0 -7.6 -21.96 0 0 7.6 -7.82 0 0 -15.09 3.85 0c2.2,-3.06 3.29,-7.54 3.29,-13.44l0 -18.77 26.21 0 0 32.21zm-21.1 0l13.27 0 0 -24.9 -10.55 0 0 11.57c0,5.75 -0.91,10.19 -2.72,13.33z"/>
  <polygon id="_1" class="fil0" points="218.17,511.45 234.9,511.45 234.9,518.94 210.34,518.94 210.34,479.24 234.62,479.24 234.62,486.72 218.17,486.72 218.17,495.17 233.2,495.17 233.2,502.55 218.17,502.55 "/>
  <path id="_2" class="fil0" d="M262.86 498.41c3.78,2 5.67,5.14 5.67,9.41 0,3.56 -1.34,6.43 -4.02,8.62 -2.69,2.2 -6.15,3.29 -10.38,3.29 -7.38,0 -12.31,-3.12 -14.81,-9.35l6.75 -3.81c1.21,3.86 3.9,5.79 8.06,5.79 2.15,0 3.8,-0.45 4.93,-1.36 1.14,-0.91 1.7,-2.14 1.7,-3.69 0,-1.55 -0.55,-2.78 -1.67,-3.68 -1.12,-0.91 -2.71,-1.37 -4.79,-1.37l-4.94 0 0 -6.97 3.75 0c1.96,0 3.49,-0.43 4.59,-1.28 1.1,-0.85 1.65,-2.01 1.65,-3.49 0,-1.47 -0.48,-2.63 -1.42,-3.49 -0.95,-0.85 -2.35,-1.27 -4.2,-1.27 -3.4,0 -5.79,1.66 -7.15,4.99l-6.63 -3.86c2.68,-5.63 7.28,-8.45 13.78,-8.45 3.93,0 7.15,1.06 9.64,3.18 2.5,2.12 3.75,4.91 3.75,8.39 0,3.56 -1.42,6.36 -4.26,8.4z"/>
  <polygon id="_3" class="fil0" points="313.91,479.24 313.91,518.94 306.14,518.94 306.14,493.19 294.97,511.62 294.06,511.62 282.88,493.25 282.88,518.94 275.06,518.94 275.06,479.24 283.11,479.24 294.51,498.01 305.86,479.24 "/>
  <path id="_4" class="fil0" d="M348.23 518.94l-2.39 -7.15 -15.82 0 -2.38 7.15 -8.45 0 13.89 -39.7 9.7 0 13.95 39.7 -8.5 0zm-15.72 -14.46l10.9 0 -5.45 -16.23 -5.45 16.23z"/>
  <polygon id="_5" class="fil0" points="393.04,518.94 384.02,518.94 369.84,500.34 369.84,518.94 362.01,518.94 362.01,479.24 369.84,479.24 369.84,496.76 383.45,479.24 392.47,479.24 377.78,498.52 "/>
  <path id="_6" class="fil0" d="M413.74 519.73c-5.98,0 -10.91,-1.98 -14.81,-5.95 -3.89,-3.97 -5.84,-8.87 -5.84,-14.69 0,-5.86 1.95,-10.77 5.84,-14.72 3.9,-3.95 8.83,-5.93 14.81,-5.93 3.59,0 6.91,0.84 9.95,2.53 3.05,1.68 5.42,3.96 7.12,6.83l-6.75 3.91c-0.98,-1.77 -2.38,-3.16 -4.2,-4.17 -1.81,-1 -3.85,-1.5 -6.12,-1.5 -3.86,0 -6.97,1.21 -9.33,3.63 -2.37,2.42 -3.55,5.56 -3.55,9.42 0,3.82 1.18,6.94 3.55,9.36 2.36,2.42 5.47,3.63 9.33,3.63 2.27,0 4.32,-0.5 6.15,-1.51 1.84,-1 3.23,-2.37 4.17,-4.11l6.75 3.92c-1.7,2.87 -4.06,5.15 -7.09,6.83 -3.02,1.68 -6.35,2.52 -9.98,2.52z"/>
  <polygon class="fil1" points="340.67,247.13 299.77,299.77 343.26,327.07 267.29,422.87 299.75,338.52 251.56,300.65 287.35,202.27 "/>
  <path class="fil2" d="M287.63 183.71c5.45,3.65 5.01,5.42 8.17,6.93 0.97,-7.83 0.24,-16.41 -2.04,-23.7 -2.64,-8.42 -6.04,-11.45 -10.39,-17.06l-6.07 -7.38c-4.67,-6.13 -14.07,-16.08 -19.4,-22.04l-6.23 -7.23c-1.24,-1.59 -2.21,-2.07 -3.47,-3.51 -8.49,-9.7 -18.61,-20.05 -26.07,-28.86l-13.2 -14.24c-2.01,-2.46 -1.64,-2.55 -3.69,-3.59 0.16,3.73 2.84,5.78 4.67,7.89l47.28 54.28 16.76 21.81c6.74,9.54 15.43,21.15 13.68,36.7z"/>
  <path class="fil2" d="M312.78 186.33l0.18 7.42c2.16,-0.53 7.32,-5.97 8.3,-7.42 -3.14,-12.79 8.72,-28.72 13.79,-36.12l27.88 -35.18 38.87 -44.08c1.98,-1.69 1.7,-1.43 1.94,-4.42 -1.44,0.75 -1.96,1.54 -3.45,2.93l-33.01 35.89c-0.65,0.66 -1,1.2 -1.59,1.94l-30.82 34.58c-2.83,3.01 -15.29,18.57 -17.31,22.41 -2.94,5.59 -4.99,14.87 -4.78,22.05z"/>
  <path class="fil2" d="M384.29 304.03c4.85,0.61 15.7,6.81 18.53,8.89 8.99,6.58 11.05,12.94 13.64,15.09l1.57 -10.73c-0.66,-0.61 -1.63,-1.43 -2.44,-2.16 -1.2,-1.08 -0.62,-0.84 -2.53,-1.48 -9,-3.05 -13.86,-6 -21.29,-11.47 -10.6,-7.81 -22.24,-19.38 -29.81,-29.8l-14.4 -20.17 -1.18 2.21c-0.97,2.78 -1.38,4.53 -0.15,7.23 1.13,2.48 3.07,5.34 4.6,7.68 5.29,8.11 27.84,38.3 32.12,40.76l1.34 -6.05z"/>
  <path class="fil2" d="M225.36 315.1c3.13,-3.64 6.35,-10.27 9.14,-14.67 2.8,-4.4 6.18,-10.2 8.47,-14.88 2.67,-5.45 5.38,-10.38 8.06,-15.93 4.59,-9.49 4.09,-8.22 0.88,-17.07 -1.34,1.11 -0.04,-0.78 -1.37,1.5 -0.02,0.04 -0.57,1.49 -0.65,1.67 -5.21,12.28 -21.07,39.48 -28.89,47.01 -1.2,1.15 -1.01,0.85 -1.99,2.07 -6.04,7.47 -14.89,13.95 -23.47,18.59 -2.69,1.46 -2.09,2.44 -4.16,3.85 0.44,2.33 0.91,3.56 1.61,5.77 0.32,0.99 0.5,1.73 0.81,2.67 0.04,0.14 0.38,1.16 0.45,1.31 0.38,0.79 0.49,0.75 0.83,1.16 3.39,-12.37 16.58,-23.61 27.56,-28.67l2.72 5.62z"/>
  <path class="fil2" d="M248.53 391.31c0.48,-3.65 0.35,-6.63 1.09,-10.55 0.63,-3.33 1.65,-6.07 2.37,-9.29 1.3,-5.85 3.85,-25.76 2.75,-31.89 -0.52,-2.93 -2.95,-4.41 -2.07,-9.42 0.65,-3.69 2.42,-5.4 0.68,-9.99 -1.05,-2.77 -2.82,-4.97 -5.31,-5.66 -11.14,9.94 7.46,57.29 -9.59,74.98 -1.95,2.02 -2.74,0.89 -1.84,3.44 4.67,-0.86 5.19,-3.88 11.92,-1.62z"/>
  <path class="fil2" d="M358.65 314.12c-9.21,1.81 -5.75,16.31 -5.75,16.43 -0.12,4.84 -2.54,5.47 -3.03,9.05 -2.62,19.12 2.48,36.19 1.99,50.86 10.18,0.24 3.83,-0.48 11.04,2.52 0.63,0.26 2.55,0.11 0.79,-2.17 -0.45,-0.59 -1.05,-0.93 -1.77,-1.8 -17.6,-21.38 5.86,-64.81 -3.27,-74.89z"/>
  <path class="fil2" d="M358.79 182.21c-16.61,29.37 -6.13,14.44 -26.37,29.02 -2,1.44 -3.19,1.61 -3.96,4.06 1.14,3.14 4.61,3.84 6.4,0.73 3.96,-6.88 13.58,-9.63 21.56,-10.55 1.15,-5.07 6.71,-16.43 9.87,-21.1 2.08,-3.09 4.07,-3.19 2.79,-6.39 -3.11,0.89 -4.6,3.49 -10.29,4.23z"/>
  <path class="fil2" d="M243.51 201.51c4.95,1.58 8.95,1.73 13.53,3.95 5.31,2.59 6.25,4.25 8.82,8.43 3.62,0.5 4.32,0.52 5.67,-2.29 -2.49,-5.24 -14.13,-9.07 -18.62,-13.11 -3.83,-3.45 -8.24,-14.28 -11.64,-19.9 -4.88,-0.87 -8.79,-3.87 -10.56,-4.13 -0.67,3.11 3.2,5.66 6.6,12.76 2.15,4.49 4.71,9.27 6.2,14.29z"/>
  <path class="fil2" d="M221.72 445.64c1.19,-1.71 0.97,-5.74 1.66,-8.18 3.4,-11.94 20.05,-31.51 22.9,-44.26 -1.92,-1.27 -2.84,-1.22 -5.46,-0.75 -1.04,0.59 -7.74,29.35 -23.89,40.9 -1.87,1.34 -4.17,1.91 -4.66,4.24 2.02,0.95 4,-0.98 6.16,1.54 1.61,1.88 1.11,4.64 2.12,6.51l1.17 0z"/>
  <path class="fil2" d="M360.24 393.61c-0.86,-2.68 -4.7,-1.68 -6.34,-0.9 4.57,17.2 12.73,28.05 17.13,38.86 1.1,2.69 1.72,4.53 2.22,7.36 0.41,2.29 0.2,6.58 0.58,7.93 2.61,0.33 1.56,1.25 2.39,-2.14 1.61,-6.54 4.42,-5.06 7.97,-4.5 0.21,-3.64 -3.52,-3.04 -8.78,-9.62 -2.33,-2.91 -5.06,-7.39 -6.97,-11.42 -2.16,-4.52 -3.58,-8.01 -5.12,-12.96l-3.08 -12.61z"/>
  <rect class="fil3" width="599.54" height="599.54"/>
 </g>
</svg>
